<svg xmlns="http://www.w3.org/2000/svg" xmlns:xlink="http://www.w3.org/1999/xlink" width="629" zoomAndPan="magnify" viewBox="0 0 471.75 374.250002" height="499" preserveAspectRatio="xMidYMid meet" version="1.0"><defs><g/></defs><g fill="#000000" fill-opacity="1"><g transform="translate(67.315228, 248.606136)"><g><path d="M 117.304688 -78.410156 C 117.921875 -82.9375 116.6875 -86.640625 113.394531 -89.109375 C 110.71875 -91.167969 107.839844 -93.433594 104.957031 -95.492188 C 104.546875 -97.136719 103.722656 -98.785156 102.074219 -100.019531 C 81.90625 -113.601562 61.535156 -127.59375 38.894531 -134.796875 C 38.691406 -134.796875 38.484375 -135.003906 38.277344 -135.003906 C 36.839844 -135.621094 35.398438 -136.03125 33.957031 -136.648438 C 33.546875 -137.0625 32.929688 -137.472656 32.105469 -137.472656 C 25.3125 -138.707031 12.964844 -141.382812 9.054688 -133.769531 C 6.792969 -129.035156 9.054688 -123.273438 12.964844 -119.980469 C 11.730469 -118.128906 10.289062 -116.6875 8.644531 -115.453125 C 10.289062 -108.457031 11.730469 -101.253906 13.171875 -94.253906 C 11.9375 -94.253906 10.703125 -94.253906 9.464844 -94.050781 C 3.292969 -94.050781 0.824219 -83.761719 6.585938 -80.054688 C 8.4375 -78.820312 10.703125 -77.585938 12.757812 -76.761719 L 8.027344 -76.144531 C 10.289062 -75.324219 12.554688 -74.5 14.816406 -73.882812 C 15.640625 -73.675781 16.050781 -73.058594 16.050781 -72.441406 C 16.464844 -72.441406 16.875 -72.441406 17.285156 -72.441406 L 18.523438 -65.238281 C 20.167969 -55.566406 21.816406 -45.894531 23.460938 -36.21875 L 25.3125 -22.636719 C 25.726562 -18.109375 25.3125 -13.171875 26.34375 -8.847656 C 26.34375 -6.585938 28.398438 -5.144531 30.046875 -5.554688 C 30.253906 -4.320312 30.664062 -3.292969 31.28125 -2.265625 C 33.75 0.617188 37.867188 0.410156 40.542969 -1.851562 C 42.601562 -3.5 44.039062 -5.554688 45.277344 -8.027344 C 45.277344 -9.054688 45.277344 -10.289062 45.070312 -11.523438 C 45.6875 -21.609375 44.660156 -32.105469 44.039062 -42.1875 C 43.628906 -51.65625 42.804688 -61.121094 41.777344 -70.382812 C 47.128906 -70.175781 52.683594 -69.765625 58.035156 -69.558594 C 59.0625 -67.707031 60.300781 -65.648438 61.535156 -63.796875 L 61.535156 -63.589844 C 62.769531 -61.535156 63.796875 -59.476562 64.828125 -57.210938 C 68.738281 -49.597656 74.292969 -36.015625 76.558594 -30.664062 C 80.671875 -21.195312 84.789062 -11.523438 88.492188 -1.851562 C 89.316406 -1.441406 90.550781 -1.851562 91.167969 -2.46875 C 91.167969 -2.265625 91.375 -2.265625 91.582031 -2.265625 C 93.433594 -1.441406 95.285156 -1.441406 97.136719 -1.644531 C 100.636719 -0.207031 105.367188 -1.234375 105.984375 -5.761719 C 107.632812 -19.140625 100.429688 -32.105469 94.875 -43.835938 C 90.550781 -52.683594 85.613281 -61.121094 80.054688 -69.355469 C 89.726562 -68.53125 99.402344 -67.707031 109.074219 -67.089844 C 112.367188 -66.679688 116.277344 -70.175781 116.6875 -74.085938 Z M 33.75 -109.894531 L 33.132812 -113.1875 C 50.832031 -109.074219 67.296875 -100.222656 83.144531 -89.316406 L 63.179688 -91.785156 C 58.445312 -95.695312 51.65625 -101.253906 45.480469 -97.34375 C 44.453125 -96.519531 43.835938 -95.285156 43.628906 -94.253906 C 42.601562 -94.460938 41.367188 -94.460938 40.335938 -94.667969 C 39.511719 -98.988281 38.484375 -103.3125 37.457031 -107.632812 C 37.25 -109.484375 35.191406 -109.484375 34.164062 -108.457031 C 33.957031 -108.867188 33.957031 -109.484375 33.75 -109.894531 Z M 48.363281 -17.285156 C 49.1875 -22.226562 50.832031 -24.285156 50.214844 -31.691406 C 49.1875 -44.039062 48.15625 -56.390625 46.097656 -68.324219 L 44.453125 -68.324219 C 46.921875 -51.449219 47.539062 -34.367188 48.363281 -17.285156 Z M 48.363281 -17.285156 "/></g></g></g><g fill="#000000" fill-opacity="1"><g transform="translate(170.00103, 248.606136)"><g><path d="M 2.882812 -118.746094 C 3.292969 -116.6875 6.175781 -115.042969 8.027344 -114.425781 C 11.113281 -113.1875 14.199219 -112.777344 17.492188 -112.777344 C 21.402344 -112.777344 25.929688 -113.804688 28.398438 -116.6875 C 32.308594 -117.511719 36.21875 -119.363281 39.308594 -121.625 C 40.953125 -122.863281 42.394531 -124.917969 41.570312 -127.183594 C 39.511719 -132.535156 35.398438 -135.621094 29.839844 -137.0625 C 23.460938 -138.707031 17.082031 -136.238281 11.730469 -132.535156 C 11.320312 -132.328125 10.90625 -131.917969 10.496094 -131.503906 C 8.4375 -130.066406 6.792969 -128.417969 5.351562 -126.359375 C 3.910156 -124.300781 2.058594 -121.421875 2.882812 -118.746094 Z M 16.667969 -113.804688 C 14.199219 -114.011719 11.9375 -114.425781 9.671875 -115.246094 C 8.230469 -115.660156 6.996094 -116.480469 5.761719 -117.511719 C 4.117188 -118.953125 4.320312 -120.390625 5.144531 -122.246094 C 5.96875 -123.683594 6.792969 -124.917969 7.820312 -126.15625 C 5.761719 -121.421875 8.027344 -116.6875 13.996094 -115.453125 C 18.726562 -114.628906 21.402344 -115.042969 23.871094 -115.660156 C 24.078125 -115.660156 22.636719 -113.804688 16.667969 -113.804688 Z M 38.074219 -10.90625 C 38.484375 -8.847656 41.777344 -9.054688 41.570312 -11.113281 C 37.660156 -40.335938 36.015625 -69.558594 36.839844 -98.988281 C 36.839844 -99.195312 35.398438 -98.988281 35.398438 -98.578125 C 34.574219 -83.964844 34.574219 -62.355469 35.191406 -47.746094 C 34.78125 -47.746094 34.164062 -54.949219 33.75 -54.742188 C 33.546875 -56.59375 33.339844 -58.445312 33.339844 -59.886719 C 33.132812 -67.5 32.722656 -75.117188 32.722656 -82.523438 C 32.722656 -90.140625 33.132812 -97.546875 33.132812 -105.164062 C 32.929688 -107.015625 31.28125 -107.839844 29.839844 -107.632812 C 26.546875 -115.863281 16.050781 -108.25 11.730469 -105.367188 C 11.113281 -104.75 10.496094 -104.132812 10.085938 -103.3125 C 7.613281 -100.839844 6.378906 -96.929688 5.761719 -93.019531 C 4.9375 -85.613281 5.144531 -77.996094 5.144531 -70.589844 C 4.9375 -55.152344 5.96875 -39.925781 7.820312 -24.695312 C 8.644531 -18.933594 8.847656 -12.757812 13.171875 -8.644531 C 14.199219 -7.820312 15.230469 -7.203125 16.257812 -6.792969 L 16.667969 -6.175781 C 20.578125 -2.265625 26.753906 -1.027344 31.691406 -3.5 C 33.546875 -4.320312 33.957031 -5.96875 33.75 -7.410156 C 35.398438 -8.027344 37.042969 -9.261719 38.074219 -10.90625 Z M 15.230469 -94.875 C 15.230469 -95.285156 16.050781 -96.519531 16.667969 -96.929688 L 16.875 -96.929688 C 14.613281 -90.34375 14.199219 -82.730469 14.199219 -75.734375 C 13.996094 -66.472656 14.199219 -57.210938 14.199219 -47.949219 L 13.582031 -47.949219 C 12.964844 -52.890625 12.347656 -57.828125 11.9375 -62.769531 C 11.9375 -62.972656 11.9375 -62.972656 11.9375 -63.179688 L 11.9375 -65.238281 C 12.347656 -74.703125 12.140625 -85.613281 15.230469 -94.875 Z M 15.230469 -94.875 "/></g></g></g><g fill="#000000" fill-opacity="1"><g transform="translate(194.487748, 248.606136)"><g><path d="M 92.609375 -94.875 C 98.988281 -95.078125 104.546875 -99.605469 105.367188 -106.191406 C 107.632812 -112.570312 103.929688 -120.390625 97.753906 -123.066406 L 97.546875 -123.273438 C 93.636719 -124.507812 89.109375 -124.097656 84.996094 -124.300781 C 80.054688 -124.714844 74.910156 -124.917969 69.972656 -125.539062 C 60.09375 -126.566406 50.421875 -128.007812 40.542969 -129.859375 C 39.925781 -130.066406 39.511719 -129.652344 39.101562 -129.035156 C 31.074219 -130.886719 23.050781 -132.738281 15.023438 -135.003906 C 10.703125 -138.914062 2.882812 -136.238281 1.851562 -130.886719 C 0.410156 -124.507812 2.058594 -119.570312 5.554688 -115.863281 C 4.9375 -114.21875 4.9375 -112.160156 5.554688 -110.308594 C 8.230469 -101.457031 10.085938 -92.402344 11.730469 -83.144531 C 9.464844 -82.113281 7.410156 -80.46875 6.175781 -78.203125 C 2.675781 -72.234375 4.9375 -65.238281 10.496094 -61.535156 C 12.140625 -60.503906 13.582031 -59.886719 15.230469 -59.476562 C 16.050781 -52.480469 16.875 -45.480469 17.492188 -38.277344 C 17.90625 -34.367188 18.523438 -30.457031 18.933594 -26.34375 C 19.140625 -24.285156 19.34375 -21.402344 20.167969 -18.933594 C 19.960938 -14.613281 20.375 -10.289062 21.609375 -5.761719 C 23.050781 -0.410156 28.8125 1.027344 33.339844 -1.027344 C 44.246094 -5.761719 43.21875 -19.34375 43.011719 -29.222656 C 42.804688 -39.511719 41.160156 -49.804688 39.511719 -59.886719 C 43.011719 -60.09375 46.511719 -60.09375 50.007812 -60.09375 C 62.972656 -60.300781 75.941406 -59.476562 88.699219 -57.625 C 97.546875 -56.59375 103.515625 -67.089844 101.457031 -74.5 C 99.8125 -80.46875 93.636719 -84.378906 87.671875 -84.378906 C 75.941406 -85.613281 64.210938 -86.023438 52.480469 -85.816406 C 46.304688 -85.613281 40.335938 -85.40625 34.164062 -84.789062 L 33.957031 -84.789062 C 33.546875 -87.054688 29.839844 -100.429688 29.019531 -104.546875 C 33.132812 -103.515625 37.042969 -102.695312 40.335938 -102.074219 C 49.1875 -100.429688 58.242188 -99.402344 67.089844 -98.578125 L 80.054688 -97.34375 C 80.878906 -97.34375 81.496094 -97.34375 82.320312 -97.136719 L 82.9375 -97.136719 C 86.023438 -95.492188 88.90625 -94.667969 92.609375 -94.875 Z M 18.316406 -129.035156 C 17.699219 -130.066406 16.667969 -131.917969 15.847656 -132.738281 C 23.460938 -129.859375 34.367188 -128.210938 42.1875 -126.15625 L 38.894531 -126.15625 C 37.042969 -126.566406 23.253906 -126.976562 18.316406 -129.035156 Z M 18.316406 -129.035156 "/></g></g></g><g fill="#000000" fill-opacity="1"><g transform="translate(284.826346, 248.606136)"><g><path d="M 117.511719 -121.214844 C 122.449219 -123.273438 122.65625 -131.09375 117.921875 -133.769531 C 117.511719 -134.179688 117.097656 -134.386719 116.6875 -134.59375 C 117.097656 -134.796875 117.714844 -134.796875 118.128906 -134.796875 C 120.1875 -135.210938 119.570312 -138.707031 117.714844 -138.503906 C 114.628906 -138.089844 111.542969 -137.886719 108.457031 -137.472656 C 107.222656 -137.679688 105.984375 -137.472656 104.957031 -137.472656 C 102.898438 -137.269531 100.839844 -137.0625 98.578125 -136.648438 C 69.972656 -134.179688 41.160156 -133.5625 12.347656 -135.210938 C 11.730469 -135.414062 11.523438 -134.179688 12.140625 -134.179688 C 23.253906 -132.328125 34.367188 -131.09375 45.480469 -130.476562 C 45.480469 -130.269531 45.277344 -130.066406 45.277344 -129.859375 C 33.957031 -129.859375 22.84375 -130.683594 11.523438 -131.710938 C 6.996094 -132.121094 2.882812 -128.210938 1.644531 -124.097656 C 0.410156 -119.15625 2.882812 -114.21875 6.996094 -111.953125 C 8.230469 -108.660156 10.90625 -105.78125 13.582031 -103.929688 C 17.285156 -101.664062 21.816406 -101.046875 26.136719 -100.429688 C 31.488281 -100.019531 37.042969 -99.8125 42.601562 -99.8125 C 45.277344 -99.8125 47.949219 -99.8125 50.625 -99.8125 L 50.625 -93.226562 L 50.214844 -84.171875 C 49.804688 -73.46875 49.1875 -62.769531 48.570312 -52.273438 C 48.15625 -41.777344 47.949219 -31.074219 48.570312 -20.578125 C 48.980469 -12.554688 50.832031 -3.085938 59.476562 -0.410156 C 63.796875 0.824219 68.941406 -1.644531 70.382812 -6.175781 C 71.824219 -10.289062 72.03125 -16.050781 72.851562 -19.757812 L 72.851562 -11.9375 C 72.648438 -9.054688 72.648438 -6.175781 72.441406 -3.292969 L 72.441406 -2.882812 C 76.144531 -5.761719 76.96875 -10.703125 77.378906 -15.640625 C 77.175781 -22.84375 76.761719 -30.046875 76.558594 -37.25 C 76.558594 -49.804688 76.351562 -62.355469 76.351562 -74.910156 C 76.351562 -83.964844 76.558594 -93.019531 76.558594 -102.074219 C 87.054688 -103.515625 97.34375 -105.367188 107.839844 -107.425781 C 108.457031 -107.425781 108.867188 -107.839844 109.277344 -108.25 C 110.308594 -108.457031 111.542969 -108.867188 112.367188 -109.484375 C 115.660156 -111.75 116.480469 -115.453125 116.6875 -119.15625 C 117.097656 -119.773438 117.304688 -120.390625 117.511719 -121.214844 Z M 26.136719 -105.367188 C 21.195312 -105.574219 15.847656 -107.015625 12.554688 -110.101562 C 20.578125 -107.632812 28.8125 -106.191406 37.042969 -105.367188 C 33.339844 -105.164062 29.636719 -105.164062 26.136719 -105.367188 Z M 26.136719 -105.367188 "/></g></g></g><g fill="#000000" fill-opacity="1"><g transform="translate(106.299481, 284.461737)"><g><path d="M 11.875 0.363281 C 17.542969 0.363281 21.628906 -2.011719 22.441406 -5.777344 L 17.222656 -6.695312 C 16.792969 -4.792969 14.761719 -3.59375 12.023438 -3.59375 C 8.558594 -3.59375 6.355469 -5.175781 6.332031 -7.660156 C 6.332031 -10.164062 8.300781 -11.722656 11.382812 -11.722656 C 13.5625 -11.722656 15.296875 -10.71875 15.832031 -9.136719 L 20.964844 -10.183594 C 19.941406 -13.5625 16.152344 -15.703125 11.230469 -15.703125 C 4.769531 -15.703125 0.683594 -12.578125 0.683594 -7.660156 C 0.683594 -2.589844 5.027344 0.363281 11.875 0.363281 Z M 11.875 0.363281 "/></g></g></g><g fill="#000000" fill-opacity="1"><g transform="translate(128.754758, 284.461737)"><g><path d="M 1.070312 0 L 16.066406 0 L 16.066406 -4.128906 L 6.71875 -4.128906 L 6.71875 -15.320312 L 1.070312 -15.320312 Z M 1.070312 0 "/></g></g></g><g fill="#000000" fill-opacity="1"><g transform="translate(144.87975, 284.461737)"><g><path d="M 11.9375 0.535156 C 18.699219 0.535156 23.191406 -2.738281 23.191406 -7.660156 C 23.191406 -12.601562 18.699219 -15.851562 11.9375 -15.851562 C 5.175781 -15.851562 0.683594 -12.601562 0.683594 -7.660156 C 0.683594 -2.738281 5.175781 0.535156 11.9375 0.535156 Z M 11.9375 -3.421875 C 8.578125 -3.421875 6.332031 -5.113281 6.332031 -7.660156 C 6.332031 -10.207031 8.578125 -11.894531 11.9375 -11.894531 C 15.296875 -11.894531 17.523438 -10.207031 17.523438 -7.660156 C 17.523438 -5.113281 15.296875 -3.421875 11.9375 -3.421875 Z M 11.9375 -3.421875 "/></g></g></g><g fill="#000000" fill-opacity="1"><g transform="translate(168.447106, 284.461737)"><g><path d="M 6.140625 0 L 11.789062 0 L 11.789062 -11.359375 L 17.734375 -11.359375 L 17.734375 -15.320312 L 0.191406 -15.320312 L 0.191406 -11.359375 L 6.140625 -11.359375 Z M 6.140625 0 "/></g></g></g><g fill="#000000" fill-opacity="1"><g transform="translate(186.069117, 284.461737)"><g><path d="M 1.070312 0 L 6.71875 0 L 6.71875 -6.097656 L 15.082031 -6.097656 L 15.082031 0 L 20.753906 0 L 20.753906 -15.320312 L 15.082031 -15.320312 L 15.082031 -9.90625 L 6.71875 -9.90625 L 6.71875 -15.320312 L 1.070312 -15.320312 Z M 1.070312 0 "/></g></g></g><g fill="#000000" fill-opacity="1"><g transform="translate(207.583401, 284.461737)"><g><path d="M 1.070312 0 L 6.695312 0 L 6.695312 -15.320312 L 1.070312 -15.320312 Z M 1.070312 0 "/></g></g></g><g fill="#000000" fill-opacity="1"><g transform="translate(215.047012, 284.461737)"><g><path d="M 1.070312 0 L 6.398438 0 L 6.398438 -10.078125 L 6.417969 -10.078125 L 14.632812 0 L 21.414062 0 L 21.414062 -15.320312 L 16.089844 -15.320312 L 16.089844 -5.371094 L 16.066406 -5.371094 L 7.851562 -15.320312 L 1.070312 -15.320312 Z M 1.070312 0 "/></g></g></g><g fill="#000000" fill-opacity="1"><g transform="translate(237.22427, 284.461737)"><g><path d="M 10.589844 0.363281 C 13.777344 0.363281 16.667969 -0.792969 18.101562 -2.566406 L 18.121094 -2.566406 L 18.335938 0 L 22.785156 0 L 22.785156 -8.835938 L 9.222656 -8.835938 L 9.222656 -6.035156 L 17.351562 -6.035156 C 17.136719 -4.429688 15.039062 -3.273438 12.257812 -3.273438 C 8.730469 -3.273438 6.355469 -4.984375 6.355469 -7.488281 C 6.355469 -10.140625 8.449219 -11.894531 11.554688 -11.894531 C 13.5625 -11.894531 15.277344 -11.039062 15.683594 -9.753906 L 20.964844 -10.65625 C 20.324219 -13.671875 16.515625 -15.703125 11.554688 -15.703125 C 5.050781 -15.703125 0.683594 -12.34375 0.683594 -7.339844 C 0.683594 -2.738281 4.664062 0.363281 10.589844 0.363281 Z M 10.589844 0.363281 "/></g></g></g><g fill="#000000" fill-opacity="1"><g transform="translate(260.449448, 284.461737)"><g/></g></g><g fill="#000000" fill-opacity="1"><g transform="translate(265.154257, 284.461737)"><g><path d="M 10.078125 0.449219 C 15.769531 0.449219 19.425781 -1.710938 19.40625 -4.898438 C 19.40625 -7.679688 17.179688 -9.09375 12.003906 -9.605469 L 9.15625 -9.925781 C 7.167969 -10.121094 6.3125 -10.460938 6.332031 -11.039062 C 6.355469 -11.851562 7.9375 -12.367188 10.140625 -12.386719 C 12.496094 -12.410156 15.019531 -11.722656 16.710938 -10.613281 L 18.25 -13.84375 C 16.324219 -15.0625 13.285156 -15.789062 10.097656 -15.789062 C 4.578125 -15.789062 0.855469 -13.925781 0.835938 -10.632812 C 0.835938 -7.914062 2.929688 -6.566406 7.808594 -6.054688 L 10.632812 -5.734375 C 12.945312 -5.5 13.925781 -5.070312 13.925781 -4.429688 C 13.925781 -3.59375 12.558594 -3.101562 10.375 -3.101562 C 7.425781 -3.101562 4.109375 -4.128906 2.289062 -5.542969 L 0.429688 -2.183594 C 2.480469 -0.621094 6.417969 0.449219 10.078125 0.449219 Z M 10.078125 0.449219 "/></g></g></g><g fill="#000000" fill-opacity="1"><g transform="translate(284.679642, 284.461737)"><g><path d="M 6.140625 0 L 11.789062 0 L 11.789062 -11.359375 L 17.734375 -11.359375 L 17.734375 -15.320312 L 0.191406 -15.320312 L 0.191406 -11.359375 L 6.140625 -11.359375 Z M 6.140625 0 "/></g></g></g><g fill="#000000" fill-opacity="1"><g transform="translate(302.301654, 284.461737)"><g><path d="M 11.9375 0.535156 C 18.699219 0.535156 23.191406 -2.738281 23.191406 -7.660156 C 23.191406 -12.601562 18.699219 -15.851562 11.9375 -15.851562 C 5.175781 -15.851562 0.683594 -12.601562 0.683594 -7.660156 C 0.683594 -2.738281 5.175781 0.535156 11.9375 0.535156 Z M 11.9375 -3.421875 C 8.578125 -3.421875 6.332031 -5.113281 6.332031 -7.660156 C 6.332031 -10.207031 8.578125 -11.894531 11.9375 -11.894531 C 15.296875 -11.894531 17.523438 -10.207031 17.523438 -7.660156 C 17.523438 -5.113281 15.296875 -3.421875 11.9375 -3.421875 Z M 11.9375 -3.421875 "/></g></g></g><g fill="#000000" fill-opacity="1"><g transform="translate(325.869015, 284.461737)"><g><path d="M 17.84375 0.429688 C 19.234375 0.429688 20.921875 -0.0625 21.757812 -0.769531 L 20.859375 -3.039062 C 20.601562 -2.738281 20.089844 -2.566406 19.726562 -2.566406 C 19.105469 -2.566406 18.71875 -2.824219 18.421875 -3.25 L 17.371094 -4.835938 C 17.007812 -5.371094 16.539062 -5.820312 16.023438 -5.992188 L 16.023438 -6.011719 C 18.828125 -6.546875 20.472656 -8.152344 20.472656 -10.460938 C 20.472656 -13.542969 18.101562 -15.320312 13.992188 -15.320312 L 1.070312 -15.320312 L 1.070312 0 L 6.71875 0 L 6.71875 -5.070312 L 9.882812 -5.070312 C 10.953125 -5.070312 11.875 -4.621094 12.515625 -3.703125 L 13.414062 -2.226562 C 14.3125 -0.941406 15.488281 0.429688 17.84375 0.429688 Z M 6.71875 -8.214844 L 6.71875 -12.003906 L 12.28125 -12.003906 C 13.863281 -12.003906 14.804688 -11.296875 14.804688 -10.121094 C 14.804688 -8.921875 13.863281 -8.214844 12.257812 -8.214844 Z M 6.71875 -8.214844 "/></g></g></g><g fill="#000000" fill-opacity="1"><g transform="translate(347.319155, 284.461737)"><g><path d="M 1.070312 0 L 17.480469 0 L 17.480469 -3.464844 L 6.546875 -3.464844 L 6.546875 -6.3125 L 16.410156 -6.3125 L 16.410156 -9.285156 L 6.546875 -9.285156 L 6.546875 -11.851562 L 17.265625 -11.851562 L 17.265625 -15.320312 L 1.070312 -15.320312 Z M 1.070312 0 "/></g></g></g></svg>